<svg xmlns="http://www.w3.org/2000/svg" width="32" height="32" viewBox="0 0 32 32">
  <defs>
    <linearGradient id="g" x1="0" y1="0" x2="32" y2="32" gradientUnits="userSpaceOnUse">
      <stop offset="0" stop-color="#34d399"/>
      <stop offset="0.5" stop-color="#22d3ee"/>
      <stop offset="1" stop-color="#7c3aed"/>
    </linearGradient>
  </defs>
  <rect width="32" height="32" rx="7" fill="#060507"/>
  <path d="M16 5.5c.7 3.4 1.6 4.9 4 5.6-2.4.7-3.3 2.2-4 5.6-.7-3.4-1.6-4.9-4-5.6 2.4-.7 3.3-2.2 4-5.6Z" fill="url(#g)"/>
  <path d="M16 5.5c.7 3.4 1.6 4.9 4 5.6-2.4.7-3.3 2.2-4 5.6-.7-3.4-1.6-4.9-4-5.6 2.4-.7 3.3-2.2 4-5.6Z" transform="translate(0 10)" fill="url(#g)" opacity="0.55"/>
  <circle cx="16" cy="16" r="11.5" fill="none" stroke="url(#g)" stroke-width="1.4" opacity="0.35"/>
</svg>
